HIERARCHY
ROOT Bip001_Pelvis
{
  OFFSET 33.2923 95.8902 -28.781
  CHANNELS 6 Xposition Yposition Zposition Zrotation Xrotation Yrotation
  JOINT Bip001_Spine
  {
    OFFSET 1.4188e-005 10.2191 -0.0116013
    CHANNELS 3 Zrotation Xrotation Yrotation
    JOINT Bip001_L_Thigh
    {
      OFFSET 11.0458 -10.2192 0.0116197
      CHANNELS 3 Zrotation Xrotation Yrotation
      JOINT Bip001_L_Calf
      {
        OFFSET -0.707118 -44.0221 0.360014
        CHANNELS 3 Zrotation Xrotation Yrotation
        JOINT Bip001_L_Foot
        {
          OFFSET -0.651902 -40.5938 -3.56146
          CHANNELS 3 Zrotation Xrotation Yrotation
          JOINT Bip001_L_Toe0
          {
            OFFSET 0.0530839 -10.2181 13.1504
            CHANNELS 3 Zrotation Xrotation Yrotation
            End Site
            {
              OFFSET -1.02532e-005 0 7.55606
            }
          }
        }
      }
    }
    JOINT Bip001_R_Thigh
    {
      OFFSET -11.0458 -10.2191 0.0115893
      CHANNELS 3 Zrotation Xrotation Yrotation
      JOINT Bip001_R_Calf
      {
        OFFSET 0.706994 -44.0221 0.35984
        CHANNELS 3 Zrotation Xrotation Yrotation
        JOINT Bip001_R_Foot
        {
          OFFSET 0.651786 -40.5938 -3.5613
          CHANNELS 3 Zrotation Xrotation Yrotation
          JOINT Bip001_R_Toe0
          {
            OFFSET -0.0531479 -10.2181 13.1504
            CHANNELS 3 Zrotation Xrotation Yrotation
            End Site
            {
              OFFSET -1.02894e-005 0 7.55606
            }
          }
        }
      }
    }
    JOINT Bip001_Spine1
    {
      OFFSET 1.87041e-005 14.5736 1.08638
      CHANNELS 3 Zrotation Xrotation Yrotation
      JOINT Bip001_Spine2
      {
        OFFSET 2.24614e-005 14.5058 -1.69078
        CHANNELS 3 Zrotation Xrotation Yrotation
        JOINT Bip001_Neck
        {
          OFFSET 2.20278e-005 15.3945 -0.489414
          CHANNELS 3 Zrotation Xrotation Yrotation
          JOINT Bip001_L_Clavicle
          {
            OFFSET 6.06036 -0.000579998 0.00836775
            CHANNELS 3 Zrotation Xrotation Yrotation
            JOINT Bip001_L_UpperArm
            {
              OFFSET 11.5509 -0.0600302 0.00193952
              CHANNELS 3 Zrotation Xrotation Yrotation
              JOINT Bip001_L_Forearm
              {
                OFFSET 25.9523 0.0806089 -2.15551
                CHANNELS 3 Zrotation Xrotation Yrotation
                JOINT Bip001_L_Hand
                {
                  OFFSET 32.2476 0.153767 1.63968
                  CHANNELS 3 Zrotation Xrotation Yrotation
                  JOINT Bip001_L_Finger0
                  {
                    OFFSET 6.04639 -2.20976 5.90322
                    CHANNELS 3 Zrotation Xrotation Yrotation
                    End Site
                    {
                      OFFSET 4.22376 -1.43895 0.606486
                    }
                  }
                  JOINT Bip001_L_Finger1
                  {
                    OFFSET 11.0826 -0.704819 -0.198153
                    CHANNELS 3 Zrotation Xrotation Yrotation
                    End Site
                    {
                      OFFSET 6.20028 -0.397518 -0.0787166
                    }
                  }
                }
              }
            }
          }
          JOINT Bip001_R_Clavicle
          {
            OFFSET -6.06036 -0.000563197 0.00835105
            CHANNELS 3 Zrotation Xrotation Yrotation
            JOINT Bip001_R_UpperArm
            {
              OFFSET -11.5509 -0.0599978 0.00190698
              CHANNELS 3 Zrotation Xrotation Yrotation
              JOINT Bip001_R_Forearm
              {
                OFFSET -25.9523 0.080682 -2.1559
                CHANNELS 3 Zrotation Xrotation Yrotation
                JOINT Bip001_R_Hand
                {
                  OFFSET -32.2476 0.153858 1.63991
                  CHANNELS 3 Zrotation Xrotation Yrotation
                  JOINT Bip001_R_Finger0
                  {
                    OFFSET -6.04641 -2.20974 5.90321
                    CHANNELS 3 Zrotation Xrotation Yrotation
                    End Site
                    {
                      OFFSET -4.22376 -1.43894 0.606474
                    }
                  }
                  JOINT Bip001_R_Finger1
                  {
                    OFFSET -11.0826 -0.704789 -0.198184
                    CHANNELS 3 Zrotation Xrotation Yrotation
                    End Site
                    {
                      OFFSET -6.20028 -0.397501 -0.0787338
                    }
                  }
                }
              }
            }
          }
          JOINT Bip001_Head
          {
            OFFSET 1.09673e-005 11.2744 2.05948
            CHANNELS 3 Zrotation Xrotation Yrotation
            End Site
            {
              OFFSET 2.89576e-005 20.8808 -2.77728e-005
            }
          }
        }
      }
    }
  }
}
MOTION
Frames:	16
Frame Time:	0.04
32.2537 95.8981 -28.5814 0.401632 -0.621905 -0.287647 -0.0378461 2.8793 -0.400756 4.72624 -3.08119 6.25426 0.152977 6.96102 -9.42815 3.44851 -2.34873 -0.101335 -3.5771 -4.03686 5.44959 -3.5346 -4.12173 -1.07411 0.907432 10.8667 -0.0197741 -5.0105 -10.158 3.71663 1.79132 -6.42995 2.2181 -0.0446184 5.7397 -0.80393 -0.048046 5.7397 -0.80401 -4.64585 -0.528915 -2.57747 -18.8848 2.58924 -3.70279 -50.1295 41.4711 -2.54971 12.6096 -0.0908635 -25.0234 7.74954 1.04593 -2.15198 6.36111e-015 -3.18055e-015 -0 3.18055e-015 -3.18056e-015 -1.59028e-015 33.3501 8.79122 17.972 40.0796 42.6347 11.0958 -11.5201 3.8456 12.8876 -7.52431 2.80418 3.64017 -3.18055e-015 0 3.18055e-015 -3.18055e-015 0 3.18055e-015 8.57713 13.644 -6.65218 
32.2933 95.9073 -28.6409 0.422122 -0.640104 -0.303859 -0.0381262 2.87993 -0.395094 4.67027 -3.02195 5.57527 0.0515108 6.74733 -8.74062 3.74824 -2.02309 -0.115216 -3.40456 -4.2238 5.30819 -3.56344 -4.14654 -0.839062 0.942986 10.8282 -0.0235268 -5.06526 -10.0824 3.52498 1.79132 -6.42995 2.2181 -0.0561706 5.75798 -0.790022 -0.0564539 5.75799 -0.789901 -4.51275 -0.6088 -2.65302 -19.0103 2.64684 -3.6544 -49.8283 41.5818 -2.87434 12.5564 -0.101973 -24.9012 7.83051 1.11454 -2.14324 -3.18055e-015 -1.27222e-014 -0 -2.64834e-031 -9.54167e-015 -1.59028e-015 33.1002 9.05911 18.5224 38.5405 42.3753 12.1721 -11.8571 2.9014 13.4934 -8.46052 3.32646 2.91746 -3.18055e-015 -6.36111e-015 -0 -3.18055e-015 -9.54167e-015 -0 8.31595 13.8206 -6.60643 
32.3491 95.909 -28.7054 0.463813 -0.607776 -0.312163 -0.051166 2.87844 -0.366048 4.56928 -3.11331 5.92026 0.152608 6.77158 -9.15561 3.8427 -1.91621 -0.130497 -3.38805 -4.30369 5.30784 -3.63976 -4.30838 -0.751464 0.979552 11.0038 -0.0578722 -5.05323 -10.0765 3.45214 1.7923 -6.42991 2.22686 -0.0840988 5.75352 -0.730945 -0.0840987 5.75352 -0.730946 -4.32348 -0.585684 -2.74723 -19.1548 2.60641 -3.65168 -49.6275 41.4922 -3.15462 12.4661 -0.22418 -24.8453 7.76896 1.13218 -2.12574 -6.36111e-015 6.36111e-015 -1.59028e-015 -6.36111e-015 6.36111e-015 -0 32.6308 9.1653 19.0276 37.284 42.2354 13.1403 -12.4318 1.80111 14.0278 -9.42678 3.94622 1.96461 1.27222e-014 3.18055e-015 3.18055e-015 6.36111e-015 6.36111e-015 3.18055e-015 8.04072 13.7795 -6.54726 
32.3788 95.9203 -28.7517 0.47865 -0.584657 -0.24279 -0.0619014 2.8705 -0.35763 4.55314 -3.13645 5.33771 0.0889141 6.67798 -8.64789 3.6938 -1.91488 -0.129233 -3.46456 -4.23742 5.38815 -3.65109 -4.34436 -0.822716 0.950781 11.0027 -0.0532353 -5.00524 -10.0126 3.4718 1.78877 -6.39518 2.20725 -0.106426 5.74132 -0.708974 -0.106426 5.74132 -0.708971 -4.17749 -0.609121 -2.79561 -19.3265 2.59399 -3.55716 -49.4729 41.1306 -3.29045 12.3825 -0.192737 -24.9704 7.96783 0.940614 -2.11501 0 3.18055e-015 -0 0 6.36111e-015 -0 32.3031 9.29972 19.4471 36.3519 42.2217 13.6975 -13.1058 0.791013 14.4723 -10.7576 3.9803 0.811651 -3.18055e-015 0 1.59028e-015 -3.18055e-015 0 1.59028e-015 7.78134 13.8428 -6.46814 
32.4173 95.9288 -28.7882 0.543563 -0.560065 -0.174819 -0.0889123 2.85927 -0.358012 4.4596 -3.15936 5.50462 0.13982 6.60082 -8.87818 3.86613 -1.68129 -0.133577 -3.36795 -4.33646 5.30509 -3.69819 -4.38315 -0.786429 0.950194 11.0202 -0.0657463 -5.04541 -10.0007 3.3523 1.79283 -6.42597 2.23289 -0.161115 5.71903 -0.695407 -0.16111 5.71903 -0.695495 -4.08221 -0.488292 -2.83415 -19.4297 2.42996 -3.44957 -49.4627 40.8207 -3.29954 12.4436 -0.110267 -25.1441 8.12245 0.84937 -2.20092 -3.18055e-015 -3.18055e-015 1.59028e-015 -3.18055e-015 -3.18056e-015 1.59028e-015 32.1631 9.3738 20.0167 35.6084 41.8591 13.89 -13.5425 0.181006 14.8063 -12.1469 4.28815 -0.167481 -0 -3.18055e-015 -0 3.18055e-015 -3.18056e-015 -0 7.55257 13.7315 -6.40318 
32.4484 95.9286 -28.8101 0.606835 -0.548171 -0.0939127 -0.122082 2.84484 -0.358786 4.38597 -3.10869 5.50036 0.142164 6.40603 -9.01571 4.134 -1.33394 -0.158378 -3.26184 -4.557 5.19642 -3.73827 -4.45541 -0.714758 0.957104 11.1679 -0.0942981 -5.06767 -10.0148 3.25647 1.79257 -6.42036 2.23252 -0.228254 5.69036 -0.692685 -0.228323 5.69036 -0.692007 -3.96259 -0.573604 -2.85902 -19.5983 2.43692 -3.19439 -49.4168 40.6719 -3.2686 12.429 -0.107478 -25.2955 8.18887 0.898921 -2.24578 1.76556e-031 -6.36111e-015 1.59028e-015 -3.18055e-015 -3.18056e-015 1.59028e-015 31.9688 9.58043 20.4012 35.4342 41.811 13.4583 -14.1952 -0.646051 15.5273 -13.1678 4.887 -1.29108 -9.54166e-015 -3.18055e-015 -0 -9.54166e-015 -3.18056e-015 -0 7.27579 13.9589 -6.30674 
32.455 95.9299 -28.8145 0.655197 -0.53866 0.0355326 -0.14864 2.8304 -0.35996 4.36326 -3.11662 5.63985 0.153845 6.38076 -9.30194 4.14032 -1.2884 -0.159239 -3.30223 -4.57049 5.24684 -3.73922 -4.46641 -0.750749 0.925002 11.2384 -0.112223 -5.08723 -10.0303 3.1888 1.79242 -6.41836 2.23189 -0.280753 5.66165 -0.703984 -0.280596 5.66166 -0.705289 -3.86359 -0.623088 -2.86994 -19.7675 2.40846 -2.93749 -49.4552 40.4788 -3.1795 12.4508 0.0205212 -25.3932 8.15615 0.92249 -2.20108 3.18055e-015 6.36111e-015 -1.59028e-015 6.36111e-015 3.18056e-015 -0 31.8512 9.71735 20.662 35.5615 41.9077 12.5455 -14.8751 -1.38207 16.5125 -14.9914 4.70035 -2.59487 -7.06225e-031 1.27222e-014 3.18055e-015 -5.29669e-031 9.54167e-015 3.18055e-015 6.9732 14.1414 -6.19172 
32.45 95.9278 -28.804 0.68493 -0.527278 0.192006 -0.163326 2.81675 -0.36638 4.37104 -3.16136 6.01201 0.188868 6.44734 -9.77323 4.01017 -1.44051 -0.149119 -3.33742 -4.46428 5.27429 -3.74179 -4.46046 -0.852451 0.910518 11.3057 -0.0862002 -5.13259 -10.0796 3.11799 1.79237 -6.41804 2.23155 -0.309213 5.63543 -0.725063 -0.309213 5.63543 -0.725065 -3.83598 -0.711536 -2.84749 -19.9011 2.44034 -2.72447 -49.5665 40.5568 -3.07707 12.5182 -0.12946 -25.3051 8.02718 0.882121 -2.23044 -1.76556e-031 -6.36111e-015 -1.59028e-015 -3.53113e-031 -6.36111e-015 -3.18055e-015 31.7877 9.83385 20.777 36.024 41.8304 11.4014 -15.5303 -1.70821 17.4014 -15.8826 4.83755 -3.20983 3.18055e-015 7.95139e-015 -3.18055e-015 3.18055e-015 4.77083e-015 -4.77083e-015 6.73933 14.3324 -6.09045 
32.4326 95.9185 -28.7895 0.700825 -0.51063 0.336985 -0.17878 2.79523 -0.383735 4.42127 -3.18287 6.17652 0.197319 6.49031 -9.96065 3.755 -1.71057 -0.130052 -3.40298 -4.2835 5.38093 -3.7233 -4.45599 -0.88803 0.911655 11.3863 -0.0803362 -5.17098 -10.1104 3.05002 1.7934 -6.43765 2.23397 -0.339394 5.59157 -0.760081 -0.339395 5.5916 -0.760084 -3.84077 -0.780371 -2.77648 -19.9935 2.44082 -2.46212 -49.7192 40.4284 -2.88835 12.4808 -0.193652 -25.3126 8.10688 0.786199 -2.10464 0 0 -0 0 3.18056e-015 -0 31.7768 9.89115 20.8057 36.9427 41.7437 9.91925 -16.0908 -1.75624 18.2812 -16.4676 4.97491 -3.46422 -6.36111e-015 -3.18055e-015 1.59028e-015 -6.36111e-015 -1.59028e-015 -0 6.58646 14.5027 -5.97769 
32.4049 95.9327 -28.77 0.739106 -0.485664 0.456254 -0.198737 2.76986 -0.401998 4.43151 -3.04041 4.59233 -0.0787344 6.12537 -8.65367 4.13723 -1.15889 -0.165138 -3.37634 -4.57407 5.31061 -3.72262 -4.37474 -0.938107 0.898466 11.2872 -0.0833085 -5.2219 -10.1045 2.99005 1.79401 -6.44667 2.23628 -0.37865 5.54104 -0.795761 -0.37865 5.54104 -0.79576 -3.97019 -0.57271 -2.67377 -20.018 2.19835 -2.31576 -49.762 40.4052 -2.65867 12.4891 -0.248642 -25.2972 8.11045 0.67869 -2.14483 -0 -6.36111e-015 -0 -3.18055e-015 -6.36111e-015 -1.59028e-015 32.0614 9.72597 20.8793 37.7475 41.6598 8.32836 -16.3732 -1.55868 19.0617 -16.8293 4.89902 -3.37009 -4.41391e-032 -1.59028e-015 -1.59028e-015 -6.36111e-015 3.18056e-015 -0 6.60631 14.2951 -5.92138 
32.3843 95.9214 -28.7418 0.795684 -0.480386 0.57807 -0.219032 2.75645 -0.423529 4.37965 -3.00855 4.91312 0.000460947 6.06843 -9.06497 4.27194 -1.03675 -0.17602 -3.2321 -4.66552 5.18251 -3.72987 -4.38388 -1.01852 0.897154 11.4176 -0.0857772 -5.24397 -10.2026 2.98474 1.81234 -6.49156 2.23867 -0.418353 5.51491 -0.837948 -0.418354 5.51492 -0.837949 -4.09236 -0.57081 -2.55521 -19.9799 2.18446 -2.22425 -49.854 40.1911 -2.43864 12.4463 -0.162215 -25.2679 8.14428 0.70258 -2.08381 6.36111e-015 3.18055e-015 1.59028e-015 5.29669e-031 -6.36111e-015 4.77083e-015 32.2804 9.67585 20.7473 38.7061 41.9992 6.62714 -16.6506 -1.56342 19.7989 -16.5503 4.82829 -3.08671 3.18055e-015 3.18055e-015 1.59028e-015 6.36111e-015 3.18056e-015 1.59028e-015 6.60715 14.2944 -5.84245 
32.3516 95.9004 -28.7221 0.81338 -0.476662 0.663331 -0.235624 2.75207 -0.436923 4.40621 -3.07324 5.39582 0.0439858 6.22643 -9.62026 4.43894 -1.10543 -0.177224 -3.18566 -4.68321 5.17697 -3.70597 -4.39225 -0.956341 0.901546 11.5209 -0.0830919 -5.32635 -10.2921 2.86544 1.82378 -6.51834 2.24053 -0.448642 5.49579 -0.86427 -0.448642 5.49579 -0.864271 -4.13483 -0.635278 -2.47749 -19.9655 2.23547 -2.14532 -49.9889 40.1177 -2.18715 12.4105 -0.250465 -25.2204 8.13352 0.772601 -1.99393 3.18055e-015 0 -0 -8.82782e-032 -3.18056e-015 -1.59028e-015 32.4808 9.6938 20.5489 39.9752 42.2188 4.66559 -16.9484 -1.2195 20.3623 -15.8012 4.72007 -2.64269 -6.36111e-015 -7.95139e-015 -1.59028e-015 -3.18055e-015 -1.11319e-014 -4.77083e-015 6.51699 14.4188 -5.75358 
32.3096 95.8909 -28.7052 0.824025 -0.469569 0.780735 -0.239143 2.75153 -0.458208 4.43984 -3.12639 5.99996 0.0978228 6.3213 -10.3808 4.39413 -1.14583 -0.177844 -3.24294 -4.70027 5.19625 -3.67261 -4.37572 -0.955429 0.901805 11.5488 -0.0810013 -5.39394 -10.3464 2.75554 1.83253 -6.53844 2.2415 -0.457962 5.48648 -0.905381 -0.457944 5.48648 -0.905357 -4.14854 -0.651579 -2.41531 -19.9731 2.24668 -2.11112 -50.0716 40.0445 -1.97151 12.46 -0.0512047 -25.1251 8.05162 0.783326 -2.01066 -8.82781e-032 -3.18055e-015 -1.59028e-015 8.82782e-032 3.18056e-015 -1.59028e-015 32.6871 9.65886 20.3113 41.0089 42.6617 2.97691 -17.0283 -0.842883 20.6185 -14.9952 4.53433 -2.13607 -1.27222e-014 4.77083e-015 1.59028e-015 -9.54166e-015 1.59028e-015 -0 6.41445 14.4272 -5.6629 
32.2604 95.8889 -28.6747 0.810124 -0.496668 0.911597 -0.239347 2.75115 -0.480233 4.49581 -3.05534 6.03662 0.0687693 6.22878 -10.5525 4.43622 -1.06586 -0.178066 -3.26102 -4.75429 5.19844 -3.61517 -4.26488 -1.10141 0.864247 11.4814 -0.0174981 -5.41228 -10.3583 2.7669 1.83744 -6.54691 2.22788 -0.453812 5.48683 -0.949932 -0.453798 5.48683 -0.949933 -4.16362 -0.708397 -2.35624 -19.974 2.30372 -2.0893 -50.1739 40.1206 -1.81403 12.5714 0.159491 -24.9418 7.94419 0.68675 -2.05872 -6.36111e-015 -3.18055e-015 -0 -3.18055e-015 -3.18056e-015 -0 32.8648 9.64012 20.0276 42.2246 43.1455 1.18862 -17.0903 -0.416838 20.6659 -14.0093 4.30441 -1.36386 3.18055e-015 4.77083e-015 -3.18055e-015 6.36111e-015 7.95139e-015 -3.18055e-015 6.36022 14.4666 -5.59265 
32.2129 95.8827 -28.6798 0.784961 -0.463188 1.0162 -0.239361 2.75091 -0.496284 4.5823 -3.15906 5.90191 0.0193085 6.33187 -10.4825 4.423 -1.14703 -0.178103 -3.23685 -4.72969 5.18957 -3.54178 -4.2641 -1.00237 0.876236 11.4386 0.00700336 -5.52258 -10.3502 2.55003 1.85544 -6.60505 2.24817 -0.450961 5.46875 -0.983144 -0.450947 5.46876 -0.983152 -4.15004 -0.725948 -2.31054 -19.9619 2.31676 -2.06782 -50.3059 40.2041 -1.67964 12.6161 0.224709 -24.7739 7.79407 0.681995 -2.01408 -3.18055e-015 -9.54166e-015 3.18055e-015 -3.18055e-015 -6.36111e-015 4.77083e-015 33.0091 9.60522 19.8053 43.6063 43.5012 -0.848629 -17.2155 0.0604737 20.8374 -12.8937 3.83814 -0.680728 -3.53112e-031 -6.36111e-015 -3.18055e-015 -6.62086e-031 -7.95139e-015 -4.77083e-015 6.32012 14.4657 -5.52986 
32.161 95.8791 -28.6774 0.746674 -0.470324 1.13311 -0.239373 2.75077 -0.507804 4.72057 -3.24091 5.85918 -0.0519306 6.49252 -10.4515 4.14076 -1.39211 -0.156698 -3.28274 -4.56323 5.23605 -3.44152 -4.23724 -0.950273 0.864642 11.4309 0.132358 -5.63794 -10.3083 2.28256 1.85918 -6.63387 2.26327 -0.448049 5.47925 -1.00855 -0.448037 5.47925 -1.00844 -4.0569 -0.727448 -2.31661 -19.9381 2.32634 -2.12181 -50.5642 40.1609 -1.63239 12.6157 0.20098 -24.5154 7.80383 0.841 -1.97505 -3.18055e-015 -3.18055e-015 1.59028e-015 -8.82782e-032 3.18056e-015 1.59028e-015 33.0817 9.52848 19.4818 44.6887 43.9075 -2.60712 -17.2092 0.619515 20.9667 -11.7708 3.47056 -0.106292 -3.18055e-015 -6.36111e-015 -0 8.82782e-032 -3.18056e-015 1.59028e-015 6.22745 14.3762 -5.47338 
